<svg id="Layer_1" data-name="Layer 1" xmlns="http://www.w3.org/2000/svg" viewBox="0 0 431.77 333.58"><defs><style>.cls-1,.cls-2,.cls-3{fill:none;stroke-miterlimit:10;}.cls-1,.cls-3{stroke:#5172a0;}.cls-1{stroke-width:3px;}.cls-2{stroke:#fff;}.cls-2,.cls-3{stroke-width:2px;}</style></defs><rect class="cls-1" x="1.5" y="1.5" width="428.77" height="330.58" rx="51.69"/><path class="cls-2" d="M311.74,108.1" transform="translate(-0.73 -3.11)"/><path class="cls-2" d="M314.89,121.71" transform="translate(-0.73 -3.11)"/><path class="cls-2" d="M311.74,108.1" transform="translate(-0.73 -3.11)"/><line class="cls-3" x1="91.13" y1="177.74" x2="95.52" y2="195.28"/><polygon class="cls-3" points="46.42 157.97 55.15 148.15 59.07 140.29 71.08 138.33 94.21 123.71 109.48 129.82 124.33 137.24 126.72 144.22 134.15 148.8 140.04 180.44 130.65 199.87 118.87 209.47 109.92 209.47 99.23 213.62 75 212.74 45.54 200.09 42.71 174.34 46.42 157.97"/><polyline class="cls-3" points="120.18 149.46 110.36 162.77 103.16 164.73 88.97 167.13 91.37 178.92 82.86 190.48 75 212.74"/><polyline class="cls-3" points="59.07 140.29 73.04 149.46 92.25 148.37 101.52 139.2 124.33 137.24"/><path class="cls-3" d="M269.89,148.93c-5.28-5.28-15.57-3.55-23,3.85s-9.14,17.7-3.86,23,15.56,3.54,23-3.86S275.17,154.2,269.89,148.93Zm-6.07,21c-5.84,5.17-13.59,5.94-17.32,1.73s-2-11.81,3.84-17,13.59-5.93,17.32-1.72S269.66,164.8,263.82,170Z" transform="translate(-0.73 -3.11)"/><path class="cls-3" d="M251.39,129.39c-5.28-5.28-15.57-3.55-23,3.85s-9.14,17.7-3.86,23,15.56,3.54,23-3.86S256.67,134.66,251.39,129.39Zm-6.07,21c-5.84,5.17-13.59,5.94-17.32,1.72s-2-11.81,3.84-17,13.59-5.93,17.32-1.72S251.16,145.26,245.32,150.43Z" transform="translate(-0.73 -3.11)"/><path class="cls-3" d="M239.41,158.28c-3-2.17-7.16-3.54-14.86-2.05,0,0-67.76,67.39-48.74,60.49s66.13-42.3,66.13-42.3v0c2.27-6.76,1.51-11.08-.75-14.33" transform="translate(-0.73 -3.11)"/><line class="cls-3" x1="210.64" y1="166.34" x2="172.49" y2="214.1"/><circle class="cls-3" cx="214.04" cy="177.09" r="2.08"/><line class="cls-3" x1="212.04" y1="177.67" x2="216" y2="176.41"/><polygon class="cls-3" points="318.08 123.76 382.65 120.38 387.11 194.03 388.18 211.33 322.72 216.24 322.38 209.53 318.08 123.76"/><polyline class="cls-3" points="319.95 161.03 314.16 208.39 322.38 209.53"/><polyline class="cls-3" points="324.51 123.43 324.51 117.34 358.37 121.65"/><polyline class="cls-3" points="384.07 125.19 389.07 125.19 384.73 154.83"/></svg>