<svg id="Layer_1" data-name="Layer 1" xmlns="http://www.w3.org/2000/svg" viewBox="0 0 431.77 333.58"><defs><style>.cls-1,.cls-2{fill:none;}.cls-1,.cls-3,.cls-4,.cls-5{stroke:#5172a0;}.cls-1,.cls-2,.cls-3,.cls-4,.cls-5{stroke-miterlimit:10;stroke-width:3px;}.cls-2{stroke:#eabebc;}.cls-3{fill:#dbfff1;}.cls-4{fill:#fff;}.cls-5{fill:#ffa017;}</style></defs><rect class="cls-1" x="1.5" y="1.5" width="428.77" height="330.58" rx="51.69"/><line class="cls-1" x1="48.34" y1="141.52" x2="230.71" y2="141.52"/><rect class="cls-1" x="61.57" y="49.02" width="19.82" height="92.5"/><rect class="cls-1" x="101.21" y="70.16" width="19.82" height="71.36"/><rect class="cls-1" x="172.57" y="43.73" width="19.82" height="97.79"/><rect class="cls-1" x="47.36" y="185.08" width="338.03" height="119.6"/><line class="cls-1" x1="47.36" y1="304.67" x2="93.82" y2="261.18"/><line class="cls-1" x1="135.33" y1="288.86" x2="93.82" y2="261.18"/><line class="cls-1" x1="183.76" y1="239.44" x2="135.33" y2="288.86"/><line class="cls-1" x1="234.17" y1="264.15" x2="183.76" y2="239.44"/><line class="cls-1" x1="320.16" y1="207.81" x2="234.17" y2="264.15"/><line class="cls-1" x1="335.98" y1="235.48" x2="320.16" y2="207.81"/><line class="cls-1" x1="385.4" y1="185.08" x2="335.98" y2="235.48"/><line class="cls-2" x1="47.36" y1="304.67" x2="93.82" y2="221.65"/><line class="cls-2" x1="165.97" y1="295.78" x2="93.82" y2="221.65"/><line class="cls-2" x1="244.06" y1="221.65" x2="165.97" y2="295.78"/><line class="cls-2" x1="306.33" y1="263.16" x2="244.06" y2="221.65"/><line class="cls-2" x1="385.4" y1="185.08" x2="306.33" y2="263.16"/><rect class="cls-1" x="307.31" y="46.95" width="76.6" height="101.31" rx="22.22"/><rect class="cls-3" x="319.48" y="59.26" width="52.98" height="18.94" rx="6.73"/><rect class="cls-4" x="319.48" y="87.66" width="9.31" height="10.42" rx="4.65"/><rect class="cls-4" x="319.48" y="104.7" width="9.31" height="10.42" rx="4.65"/><rect class="cls-4" x="334.52" y="87.66" width="9.31" height="10.42" rx="4.65"/><rect class="cls-4" x="334.52" y="104.7" width="9.31" height="10.42" rx="4.65"/><rect class="cls-4" x="348.84" y="87.66" width="9.31" height="10.42" rx="4.65"/><rect class="cls-4" x="365.3" y="87.66" width="9.31" height="10.42" rx="4.65"/><rect class="cls-4" x="348.84" y="104.7" width="9.31" height="10.42" rx="4.65"/><rect class="cls-4" x="320.2" y="121.75" width="9.31" height="10.42" rx="4.65"/><rect class="cls-4" x="335.23" y="121.75" width="9.31" height="10.42" rx="4.65"/><rect class="cls-4" x="349.55" y="121.75" width="9.31" height="10.42" rx="4.65"/><rect class="cls-5" x="365.3" y="104.7" width="9.31" height="27.46" rx="4.65"/></svg>