<svg id="Layer_1" data-name="Layer 1" xmlns="http://www.w3.org/2000/svg" viewBox="0 0 276.72 271.72"><defs><style>.cls-1{fill:#fff;}.cls-1,.cls-2{stroke:#231f20;stroke-miterlimit:10;stroke-width:40px;}.cls-2{fill:none;}</style></defs><path class="cls-1" d="M107.84-30.81" transform="translate(-23.84 -4.14)"/><path class="cls-2" d="M210.14,92.18s-25-17.45-45.8-13.7c-24.36,4.4-29.54,26.26-29.23,34.24.48,12.72,0,30.67,28.25,36.2,24.27,4.74,50.19-20.55,43.58,18.44-3.51,20.78-22,31.8-41.89,31.8s-43.58-12.52-43.58-12.52c-7-3.7-21.44-16.66-32.6-37.41-13.11-24.39-9.76-47.58-8.47-55.65.91-5.69,6-37.43,31.07-56,34.2-25.32,84.24-10.36,112.27,8.16,37.83,25,69.77,79,51.54,132.92-18.9,55.93-79.09,71.77-87.2,73.73C135.44,265.11,77.63,242.26,39.45,194.6" transform="translate(-23.84 -4.14)"/></svg>